<svg height="512" viewBox="0 0 128 128" width="512" xmlns="http://www.w3.org/2000/svg"><g><path d="m122.424 43.014c-.536-.333-11.44-7.022-22.55-7.128 2.694-10.019 1.692-22.1-2.662-30.213a1.75 1.75 0 0 0 -3.292.827c0 6.412-4.5 14.485-9.017 20.321-5.576-2.905-12.562-4.381-20.903-4.381s-15.326 1.476-20.9 4.381c-4.516-5.835-9.02-13.909-9.02-20.321a1.75 1.75 0 0 0 -3.292-.827c-4.354 8.116-5.356 20.2-2.662 30.213-11.107.108-22.014 6.794-22.55 7.128a1.749 1.749 0 0 0 -.76 1.961c3.936 13.949 14.513 20.025 23.134 22.679 1.741 14.994 5.664 25.8 11.935 32.951a17.216 17.216 0 0 0 -.095 1.81c.019 6.7 5.327 10.341 11.5 11.4 1.693 6.339 5.86 9.431 12.714 9.431s11.021-3.093 12.714-9.431c6.17-1.064 11.477-4.7 11.5-11.4a17.207 17.207 0 0 0 -.095-1.811c6.271-7.15 10.194-17.958 11.935-32.952 8.621-2.653 19.2-8.73 23.135-22.679a1.75 1.75 0 0 0 -.769-1.959zm-26.059-30.02a43.167 43.167 0 0 1 -.2 23.121c-.282.039-.564.078-.845.127a26.712 26.712 0 0 0 -2.737-3.584c-.483-.529-.994-1.03-1.519-1.518-.045-.046-.094-.087-.143-.129a27.142 27.142 0 0 0 -3.007-2.384 50.4 50.4 0 0 0 8.451-15.633zm-8.6 19.886c-1.451 2.61-7.342 4.469-16.287 5.11a7.739 7.739 0 0 0 -14.952 0c-8.946-.641-14.837-2.5-16.287-5.11 5.523-4.607 13.5-6.94 23.763-6.94s18.237 2.333 23.761 6.94zm-19.515 7.12a4.25 4.25 0 0 1 -8.5 0c0-.019.005-.036.005-.054v-.012a4.243 4.243 0 0 1 8.486 0c.003.024.009.044.009.066zm-36.615-27.006a50.4 50.4 0 0 0 8.447 15.633 27.2 27.2 0 0 0 -3.005 2.382 1.848 1.848 0 0 0 -.146.132c-.525.488-1.036.988-1.518 1.517a26.629 26.629 0 0 0 -2.737 3.584c-.281-.049-.563-.088-.845-.127a43.167 43.167 0 0 1 -.196-23.121zm-23.055 32.328c3.342-1.842 13.33-6.8 22.277-5.793-3.024 6.4-4.134 14.537-3.293 24.314-7.193-2.511-15.432-7.714-18.984-18.521zm55.42 74.428c-4.82 0-7.542-1.659-8.952-5.595h.156.037a10.96 10.96 0 0 0 5.775-1.639 5.789 5.789 0 0 1 5.968 0 10.968 10.968 0 0 0 5.772 1.638h.037.159c-1.41 3.937-4.132 5.596-8.952 5.596zm20.71-17.345c-.017 6.08-6.434 8.247-11.926 8.255h-.024a7.511 7.511 0 0 1 -3.956-1.128 9.2 9.2 0 0 0 -9.608 0 7.513 7.513 0 0 1 -3.958 1.128h-.025c-5.489-.008-11.906-2.175-11.923-8.256a13.135 13.135 0 0 1 4.064-9.582c3.873-3.887 10.251-6.3 16.646-6.3s12.773 2.415 16.646 6.3a13.139 13.139 0 0 1 4.064 9.578zm-1.584-12.053c-4.507-4.522-11.835-7.332-19.126-7.332s-14.62 2.81-19.126 7.332a17.481 17.481 0 0 0 -3.941 5.973c-5.242-7.149-8.558-18.047-9.86-32.482-1.134-12.594 1.1-22.159 6.61-28.457 2.558 3.37 8.835 5.412 18.713 6.1a7.748 7.748 0 0 0 15.208 0c9.878-.688 16.155-2.731 18.712-6.1 5.515 6.3 7.744 15.862 6.611 28.457-1.3 14.435-4.618 25.333-9.86 32.483a17.475 17.475 0 0 0 -3.941-5.974zm17.31-26.509c.841-9.776-.269-17.911-3.293-24.313 8.946-1 18.936 3.95 22.277 5.792-3.552 10.807-11.79 16.01-18.984 18.521z"/><path d="m37.929 70.608a1.75 1.75 0 1 0 -3.46.53 81.9 81.9 0 0 0 2.331 10.725 1.75 1.75 0 0 0 3.357-.993 78.28 78.28 0 0 1 -2.228-10.262z"/><path d="m44.5 54.917a4.75 4.75 0 1 0 4.75 4.75 4.755 4.755 0 0 0 -4.75-4.75zm0 6a1.25 1.25 0 1 1 1.25-1.25 1.252 1.252 0 0 1 -1.25 1.25z"/><path d="m83.5 54.917a4.75 4.75 0 1 0 4.75 4.75 4.755 4.755 0 0 0 -4.75-4.75zm0 6a1.25 1.25 0 1 1 1.25-1.25 1.252 1.252 0 0 1 -1.25 1.25z"/><path d="m71.733 94.389a5.14 5.14 0 0 0 -3.242 1.156 1.75 1.75 0 1 0 2.215 2.71 1.607 1.607 0 0 1 1.027-.366 1.626 1.626 0 0 1 1.625 1.625 1.75 1.75 0 1 0 3.5 0 5.13 5.13 0 0 0 -5.125-5.125z"/><path d="m56.266 94.389a5.131 5.131 0 0 0 -5.125 5.125 1.75 1.75 0 0 0 3.5 0 1.627 1.627 0 0 1 1.625-1.625 1.6 1.6 0 0 1 1.027.366 1.75 1.75 0 1 0 2.216-2.709 5.136 5.136 0 0 0 -3.243-1.157z"/></g></svg>