<?xml version="1.0"?>
<svg xmlns="http://www.w3.org/2000/svg" id="Layer_5" enable-background="new 0 0 64 64" height="512px" viewBox="0 0 64 64" width="512px" class=""><g><g><g><path d="m18 23h-9v-6h14v5h-5z" fill="#f0bc5e" data-original="#F0BC5E" class="active-path" style="fill:#FF3366" data-old_color="#f0bc5e"/></g><g><path d="m53 3c-5.514 0-10 4.486-10 10 0 3.962 2.322 7.382 5.67 9h5.33v.949c5.046-.503 9-4.773 9-9.949 0-5.514-4.486-10-10-10z" fill="#f0bc5e" data-original="#F0BC5E" class="active-path" style="fill:#FF3366" data-old_color="#f0bc5e"/></g><g><path d="m19 5h6v2h-6z" data-original="#000000" class="" data-old_color="#000000" style="fill:#000000"/><path d="m15 5h2v2h-2z" data-original="#000000" class="" data-old_color="#000000" style="fill:#000000"/><path d="m9.586 47h-.586c-1.103 0-2 .897-2 2v2c0 1.103.897 2 2 2h.586c.526 0 1.042-.213 1.414-.586l2.414-2.414-2.414-2.414c-.372-.373-.888-.586-1.414-.586zm0 4h-.586v-2h.586l1 1z" data-original="#000000" class="" data-old_color="#000000" style="fill:#000000"/><path d="m17 51c0 1.103.897 2 2 2h2c1.103 0 2-.897 2-2v-2c0-1.103-.897-2-2-2h-2c-1.103 0-2 .897-2 2zm2-2h2l.001 2h-2.001z" data-original="#000000" class="" data-old_color="#000000" style="fill:#000000"/><path d="m30.414 53h.586c1.103 0 2-.897 2-2v-2c0-1.103-.897-2-2-2h-.586c-.526 0-1.042.213-1.414.586l-2.414 2.414 2.414 2.414c.372.373.888.586 1.414.586zm0-4h.586l.001 2h-.587l-1-1z" data-original="#000000" class="" data-old_color="#000000" style="fill:#000000"/><path d="m52 9.803v9.197h2v-12h-2.535l-2.297 3.445 1.664 1.11z" data-original="#000000" class="" data-old_color="#000000" style="fill:#000000"/><path d="m55 21h-16v-15c0-2.757-2.243-5-5-5h-28c-2.757 0-5 2.243-5 5v52c0 2.757 2.243 5 5 5h28c2.757 0 5-2.243 5-5v-13h16zm-15.414 14h-7.172l-12-12h31.172zm-12-2-8.586 8.586v-17.172zm-2.586-12h-8v4h-4v3.667c0 .289-.429.431-.601.2l-2.899-3.867h-1.5c-.552 0-1-.449-1-1v-8c0-.551.448-1 1-1h16c.552 0 1 .449 1 1zm4 13.414 2.586 2.586h8.828l2.586-2.586 8.586 8.586h-31.172zm15.414-1.414 8.586-8.586v17.172zm-38.414-30h28c1.654 0 3 1.346 3 3v3h-34v-3c0-1.654 1.346-3 3-3zm28 58h-28c-1.654 0-3-1.346-3-3v-2.026c.838.635 1.87 1.026 3 1.026h28c1.13 0 2.162-.391 3-1.026v2.026c0 1.654-1.346 3-3 3zm3-9c0 1.654-1.346 3-3 3h-28c-1.654 0-3-1.346-3-3v-41h34v10h-10v-5c0-1.654-1.346-3-3-3h-16c-1.654 0-3 1.346-3 3v8c0 1.654 1.346 3 3 3h.5l2.3 3.067c.438.584 1.137.933 1.867.933 1.286 0 2.333-1.047 2.333-2.333v-1.667h2v18h20z" data-original="#000000" class="" data-old_color="#000000" style="fill:#000000"/><path d="m9 17h2v2h-2z" data-original="#000000" class="" data-old_color="#000000" style="fill:#000000"/><path d="m13 17h10v2h-10z" data-original="#000000" class="" data-old_color="#000000" style="fill:#000000"/><path d="m9 21h6v2h-6z" data-original="#000000" class="" data-old_color="#000000" style="fill:#000000"/><path d="m35 25h2v2h-2z" data-original="#000000" class="" data-old_color="#000000" style="fill:#000000"/><path d="m39 25h2v2h-2z" data-original="#000000" class="" data-old_color="#000000" style="fill:#000000"/><path d="m43 25h2v2h-2z" data-original="#000000" class="" data-old_color="#000000" style="fill:#000000"/></g></g></g> </svg>
