<svg height="512pt" viewBox="0 -56 512 512" width="512pt" xmlns="http://www.w3.org/2000/svg"><path d="m10 10.066406h492v66h-492zm0 0" fill="#b4fcd6"/><path d="m149.65625 173.617188c0 20.988281-17.011719 38-38 38s-38-17.011719-38-38c0-20.988282 17.011719-38 38-38s38 17.011718 38 38zm0 0" fill="#ffd469"/><path d="m294 173.617188c0 20.988281-17.011719 38-38 38s-38-17.011719-38-38c0-20.988282 17.011719-38 38-38s38 17.011718 38 38zm0 0" fill="#b4fcd6"/><path d="m438.429688 173.617188c0 20.988281-17.011719 38-38 38-20.988282 0-38-17.011719-38-38 0-20.988282 17.011718-38 38-38 20.988281 0 38 17.011718 38 38zm0 0" fill="#b2edf7"/><path d="m511.988281 9.492188c-.269531-5.292969-4.636719-9.492188-9.988281-9.492188h-492c-5.351562 0-9.71875 4.199219-9.9882812 9.492188-.0117188.171874-.0117188.339843-.0117188.511718v379.992188c0 5.523437 4.480469 10.003906 10 10.003906h492c5.519531 0 10-4.480469 10-10.003906v-379.992188c0-.171875 0-.339844-.011719-.511718zm-491.988281 10.394531h472v46.132812h-472zm472 360.105469h-472v-293.964844h472zm0 0"/><path d="m171 53.644531h-80c-5.523438 0-10-4.476562-10-10 0-5.527343 4.476562-10.003906 10-10.003906h80c5.523438 0 10 4.476563 10 10.003906 0 5.523438-4.476562 10-10 10zm0 0"/><path d="m51.019531 53.644531c-5.523437 0-10.003906-4.476562-10.003906-10 0-5.527343 4.472656-10.003906 9.996094-10.003906h.007812c5.523438 0 10 4.476563 10 10.003906 0 5.523438-4.476562 10-10 10zm0 0"/><path d="m153.65625 260.085938h-84c-5.523438 0-10-4.476563-10-10.003907 0-5.523437 4.476562-10.003906 10-10.003906h84c5.523438 0 10 4.480469 10 10.003906 0 5.527344-4.476562 10.003907-10 10.003907zm0 0"/><path d="m153.65625 300.285156h-84c-5.523438 0-10-4.480468-10-10.003906s4.476562-10.003906 10-10.003906h84c5.523438 0 10 4.480468 10 10.003906s-4.476562 10.003906-10 10.003906zm0 0"/><path d="m153.65625 340.480469h-84c-5.523438 0-10-4.476563-10-10 0-5.527344 4.476562-10.003907 10-10.003907h84c5.523438 0 10 4.476563 10 10.003907 0 5.523437-4.476562 10-10 10zm0 0"/><path d="m111.65625 221.621094c-26.46875 0-48-21.535156-48-48.011719s21.53125-48.015625 48-48.015625 48 21.539062 48 48.015625-21.53125 48.011719-48 48.011719zm0-76.019532c-15.4375 0-28 12.5625-28 28.007813 0 15.441406 12.5625 28.007813 28 28.007813s28-12.566407 28-28.007813c0-15.445313-12.558594-28.007813-28-28.007813zm0 0"/><path d="m298 260.085938h-84c-5.523438 0-10-4.476563-10-10.003907 0-5.523437 4.476562-10.003906 10-10.003906h84c5.523438 0 10 4.480469 10 10.003906 0 5.527344-4.476562 10.003907-10 10.003907zm0 0"/><path d="m298 300.285156h-84c-5.523438 0-10-4.480468-10-10.003906s4.476562-10.003906 10-10.003906h84c5.523438 0 10 4.480468 10 10.003906s-4.476562 10.003906-10 10.003906zm0 0"/><path d="m298 340.480469h-84c-5.523438 0-10-4.476563-10-10 0-5.527344 4.476562-10.003907 10-10.003907h84c5.523438 0 10 4.476563 10 10.003907 0 5.523437-4.476562 10-10 10zm0 0"/><path d="m256 221.621094c-26.46875 0-48-21.535156-48-48.011719s21.53125-48.015625 48-48.015625 48 21.539062 48 48.015625-21.53125 48.011719-48 48.011719zm0-76.019532c-15.4375 0-28 12.5625-28 28.007813 0 15.441406 12.5625 28.007813 28 28.007813s28-12.566407 28-28.007813c0-15.445313-12.5625-28.007813-28-28.007813zm0 0"/><path d="m442.429688 260.085938h-84c-5.523438 0-10-4.476563-10-10.003907 0-5.523437 4.476562-10.003906 10-10.003906h84c5.523437 0 10 4.480469 10 10.003906 0 5.527344-4.476563 10.003907-10 10.003907zm0 0"/><path d="m442.429688 300.285156h-84c-5.523438 0-10-4.480468-10-10.003906s4.476562-10.003906 10-10.003906h84c5.523437 0 10 4.480468 10 10.003906s-4.476563 10.003906-10 10.003906zm0 0"/><path d="m442.429688 340.480469h-84c-5.523438 0-10-4.476563-10-10 0-5.527344 4.476562-10.003907 10-10.003907h84c5.523437 0 10 4.476563 10 10.003907 0 5.523437-4.476563 10-10 10zm0 0"/><path d="m400.429688 221.621094c-26.46875 0-48-21.535156-48-48.011719s21.53125-48.015625 48-48.015625 48 21.539062 48 48.015625-21.53125 48.011719-48 48.011719zm0-76.019532c-15.4375 0-28 12.5625-28 28.007813 0 15.441406 12.5625 28.007813 28 28.007813s28-12.566407 28-28.007813c0-15.445313-12.5625-28.007813-28-28.007813zm0 0"/></svg>