<?xml version="1.0"?>
<svg xmlns="http://www.w3.org/2000/svg" id="Layer_1" enable-background="new 0 0 64 64" height="512px" viewBox="0 0 64 64" width="512px" class=""><g><path d="m56 47.2v-2.6c0-4.4-2.6-8.3-6.6-10.1l-8.8-3.9c1.5-1.6 2.4-3.8 2.4-6l2.4-1.2c1-.5 1.7-1.5 1.7-2.7v-.7c0-1.7-1.3-3-3-3h-1v-7c0-2.8-2.2-5-5-5h-.5c-1.3 0-2.6-.5-3.5-1.5l-1.7-1.7-5.7 1.9c-.7.2-1.4.6-2 1l-.8.6c-1.9 1.4-2.9 3.5-2.9 5.7v6h-1c-1.7 0-3 1.3-3 3v.8c0 1.1.6 2.2 1.7 2.7l2.4 1.2c0 2.2.9 4.3 2.4 6l-8.8 3.9c-4 1.8-6.6 5.7-6.6 10.1v17.3h47c1.7 0 3-1.3 3-3v-9c-.1-1.3-.9-2.4-2.1-2.8zm-13-28.2h1c.6 0 1 .4 1 1v.8c0 .4-.2.7-.6.9l-1.4.7zm-22 3.4-1.4-.7c-.3-.2-.6-.5-.6-.9v-.8c0-.6.4-1 1-1h1zm22.5 11.7-4.6 4.6-4.7-4c.5-.2.9-.4 1.3-.6l3-1.8c.1 0 .1-.1.2-.2zm-20.5-23.1c0-1.6.7-3.1 2-4l.8-.6c.4-.3.9-.6 1.4-.7l4.5-1.5.8.8c1.3 1.3 3.1 2.1 5 2.1h.5c1.7 0 3 1.3 3 3v4.2c-.3-.1-.7-.2-1-.2h-6.3c-1.4 0-2.7-.7-3.5-1.8l-.3-.3c-1-1.3-2.7-1.6-4.1-.7l-2.8 1.8zm2.1 21c.1 0 .1.1.2.2l3 1.8c.4.3.9.5 1.3.6l-4.7 4-4.6-4.6zm5.9 28h-11v-11h-2v11h-8v-15.5c0-3.6 2.1-6.8 5.4-8.2l3.1-1.4 6.4 6.4 6.1-5.2zm-1.6-27.7-3-1.8c-2.1-1.3-3.4-3.5-3.4-6v-8.4c0-.3.2-.6.4-.8l3.5-2.4c.4-.3 1-.2 1.4.2l.3.3c1.2 1.6 3.1 2.5 5.1 2.6h6.3c.6 0 1 .4 1 1v7.5c0 2.5-1.3 4.7-3.4 6l-3 1.8c-1.6 1-3.6 1-5.2 0zm8.8 27.7h-5.2v-23.8l6.1 5.2 6.4-6.4 3.1 1.4c3.3 1.4 5.4 4.7 5.4 8.2v2.4h-2v-1c0-1.7-1.3-3-3-3h-2c-1.7 0-3 1.3-3 3v1h-3c-1.7 0-3 1.3-3 3v9c0 .3.1.7.2 1zm11.8-14v1h-4v-1c0-.6.4-1 1-1h2c.6 0 1 .4 1 1zm6 13c0 .6-.4 1-1 1h-14c-.6 0-1-.4-1-1v-5h7v2h2v-2h7zm0-7h-16v-2c0-.6.4-1 1-1h14c.6 0 1 .4 1 1z" data-original="#000000" class="active-path" data-old_color="#000000" fill="#FFFFFF"/></g> </svg>
