<?xml version="1.0"?>
<svg xmlns="http://www.w3.org/2000/svg" height="512px" viewBox="0 0 496 496" width="512px" class=""><g><path d="m74.34375 149.65625 13.726562 13.734375c-.734374 1.554687-1.40625 3.097656-2.015624 4.609375h-14.054688c-4.414062 0-8 3.574219-8 8v48c0 4.425781 3.585938 8 8 8h14.007812c.617188 1.574219 1.28125 3.152344 1.992188 4.6875l-13.65625 13.65625c-3.128906 3.128906-3.128906 8.183594 0 11.3125l32 32c3.128906 3.128906 8.183594 3.128906 11.3125 0l13.65625-13.65625c1.542969.703125 3.101562 1.367188 4.6875 1.984375v14.015625c0 3.054688 1.769531 5.617188 4.289062 6.96875l-.050781.09375 120 64 .050781-.09375c1.117188.597656 2.34375 1.03125 3.710938 1.03125h12.175781c.726563 2.0625 1.542969 4.089844 2.449219 6.0625l-4.28125 4.28125c-1.503906 1.496094-2.34375 3.527344-2.34375 5.65625s.839844 4.160156 2.34375 5.65625l24 24c3.128906 3.128906 8.183594 3.128906 11.3125 0l4.28125-4.273438c1.972656.898438 4 1.722657 6.0625 2.441407v12.175781c0 4.425781 3.585938 8 8 8h32c4.414062 0 8-3.574219 8-8v-12.191406c2.039062-.71875 4.054688-1.542969 6.03125-2.457032l4.3125 4.304688c1.496094 1.503906 3.535156 2.34375 5.65625 2.34375s4.160156-.839844 5.65625-2.34375l24-24c3.128906-3.128906 3.128906-8.183594 0-11.3125l-4.304688-4.304688c.914063-1.984374 1.738282-3.992187 2.464844-6.039062h12.183594c4.414062 0 8-3.574219 8-8v-32c0-4.425781-3.585938-8-8-8h-12.175781c-.726563-2.070312-1.542969-4.097656-2.449219-6.0625l4.28125-4.28125c1.503906-1.496094 2.34375-3.527344 2.34375-5.65625s-.839844-4.160156-2.34375-5.65625l-24-24c-3.128906-3.128906-8.183594-3.128906-11.3125 0l-4.28125 4.273438c-1.972656-.898438-4-1.722657-6.0625-2.449219v-12.167969c0-4.425781-3.585938-8-8-8h-27.929688l-61.597656-84.703125-.113281.078125c-1.457031-1.992188-3.703125-3.375-6.359375-3.375h-14.007812c-.617188-1.574219-1.28125-3.152344-1.992188-4.6875l13.65625-13.65625c3.128906-3.128906 3.128906-8.183594 0-11.3125l-32-32c-3.128906-3.128906-8.183594-3.128906-11.3125 0l-13.65625 13.65625c-1.542969-.703125-3.101562-1.367188-4.6875-1.984375v-14.015625c0-4.425781-3.585938-8-8-8h-48c-4.414062 0-8 3.574219-8 8v14.054688c-1.511719.609374-3.046875 1.289062-4.617188 2.023437l-13.726562-13.734375c-1.496094-1.503906-3.535156-2.34375-5.65625-2.34375s-4.160156.839844-5.65625 2.34375l-32 32c-3.128906 3.128906-3.128906 8.183594 0 11.3125zm187.3125 100.6875-13.726562-13.734375c.734374-1.5625 1.40625-3.097656 2.015624-4.609375h14.054688c4.414062 0 8-3.574219 8-8v-23.398438l48 66v9.589844c-2.039062.730469-4.054688 1.550782-6.03125 2.464844l-4.3125-4.304688c-1.496094-1.511718-3.535156-2.351562-5.65625-2.351562s-4.160156.839844-5.65625 2.34375l-24 24c-3.128906 3.128906-3.128906 8.183594 0 11.3125l4.304688 4.304688c-.914063 1.984374-1.738282 3.992187-2.464844 6.039062h-12.183594c-4.414062 0-8 3.574219-8 8v18.664062l-79.992188-42.664062h15.992188c4.414062 0 8-3.574219 8-8v-14.054688c1.511719-.609374 3.046875-1.289062 4.617188-2.023437l13.726562 13.734375c1.496094 1.503906 3.535156 2.34375 5.65625 2.34375s4.160156-.839844 5.65625-2.34375l32-32c3.128906-3.128906 3.128906-8.183594 0-11.3125zm74.34375 21.65625h16v10.097656c0 3.644532 2.464844 6.832032 6 7.742188 4.847656 1.257812 9.441406 3.113281 13.648438 5.503906 3.136718 1.785156 7.070312 1.25 9.617187-1.296875l2.734375-2.734375 12.679688 12.6875-2.734376 2.734375c-2.554687 2.546875-3.082031 6.488281-1.296874 9.617187 2.398437 4.207032 4.246093 8.800782 5.503906 13.648438.910156 3.527344 4.09375 6 7.742187 6h10.105469v16h-10.097656c-3.644532 0-6.832032 2.472656-7.742188 6.007812-1.214844 4.710938-3.070312 9.289063-5.535156 13.601563-1.785156 3.132813-1.257812 7.070313 1.296875 9.613281l2.765625 2.777344-12.6875 12.6875-2.769531-2.777344c-2.542969-2.535156-6.476563-3.085937-9.605469-1.292968-4.328125 2.460937-8.914062 4.320312-13.617188 5.527343-3.535156.917969-6.007812 4.101563-6.007812 7.75v10.105469h-16v-10.105469c0-3.648437-2.472656-6.832031-6.007812-7.75-4.832032-1.242187-9.425782-3.097656-13.640626-5.496093-3.128906-1.769532-7.0625-1.25-9.617187 1.296874l-2.734375 2.742188-12.679688-12.6875 2.734376-2.734375c2.546874-2.546875 3.082031-6.488281 1.296874-9.617187-2.398437-4.214844-4.253906-8.816407-5.503906-13.648438-.910156-3.527344-4.105468-6-7.75-6h-10.097656v-16h10.097656c3.644532 0 6.832032-2.472656 7.742188-6.007812 1.214844-4.710938 3.070312-9.289063 5.535156-13.601563 1.785156-3.132813 1.257812-7.070313-1.296875-9.613281l-2.765625-2.777344 12.6875-12.6875 2.769531 2.777344c2.542969 2.535156 6.488281 3.078125 9.605469 1.292968 4.328125-2.453124 8.90625-4.320312 13.632812-5.542968 3.527344-.917969 5.992188-4.097656 5.992188-7.742188zm-224-148.6875 12.183594 12.183594c2.511718 2.503906 6.367187 3.0625 9.488281 1.367187 4.558594-2.488281 8.71875-4.304687 12.726563-5.558593 3.335937-1.046876 5.601562-4.144532 5.601562-7.632813v-11.671875h32v11.671875c0 3.496094 2.265625 6.574219 5.59375 7.632813 4.460938 1.40625 8.78125 3.238281 12.839844 5.457031 3.132812 1.695312 6.980468 1.140625 9.488281-1.371094l12.078125-12.078125 20.6875 20.6875-12.078125 12.078125c-2.511719 2.507813-3.066406 6.378906-1.371094 9.496094 2.226563 4.074219 4.058594 8.386719 5.449219 12.824219 1.046875 3.328124 4.144531 5.601562 7.640625 5.601562h11.671875v32h-11.671875c-3.496094 0-6.585937 2.273438-7.632813 5.609375-1.253906 4.007813-3.070312 8.167969-5.550781 12.71875-1.695312 3.121094-1.144531 6.976563 1.367188 9.488281l12.175781 12.183594-20.6875 20.6875-12.183594-12.183594c-2.503906-2.496094-6.375-3.070312-9.488281-1.367187-4.558594 2.488281-8.71875 4.304687-12.726563 5.558593-3.335937 1.046876-5.601562 4.144532-5.601562 7.632813v11.671875h-32v-11.671875c0-3.496094-2.265625-6.574219-5.59375-7.632813-4.460938-1.40625-8.78125-3.238281-12.839844-5.457031-3.125-1.703125-6.980468-1.140625-9.488281 1.371094l-12.078125 12.078125-20.6875-20.6875 12.078125-12.078125c2.511719-2.507813 3.066406-6.378906 1.371094-9.496094-2.226563-4.066406-4.058594-8.386719-5.457031-12.832031-1.046876-3.335938-4.136719-5.601562-7.632813-5.601562h-11.671875v-32h11.671875c3.496094 0 6.585937-2.265626 7.632813-5.601563 1.261718-4.015625 3.078124-8.175781 5.558593-12.726563 1.695313-3.121093 1.144531-6.976562-1.367187-9.488281l-12.183594-12.175781zm0 0" data-original="#000000" class="active-path" data-old_color="#000000" fill="#FFFFFF"/><path d="m168 256c30.878906 0 56-25.128906 56-56s-25.121094-56-56-56-56 25.128906-56 56 25.121094 56 56 56zm0-96c22.054688 0 40 17.945312 40 40s-17.945312 40-40 40-40-17.945312-40-40 17.945312-40 40-40zm0 0" data-original="#000000" class="active-path" data-old_color="#000000" fill="#FFFFFF"/><path d="m304 344c0 22.054688 17.945312 40 40 40s40-17.945312 40-40-17.945312-40-40-40-40 17.945312-40 40zm40-24c13.230469 0 24 10.769531 24 24s-10.769531 24-24 24-24-10.769531-24-24 10.769531-24 24-24zm0 0" data-original="#000000" class="active-path" data-old_color="#000000" fill="#FFFFFF"/><path d="m488 32h-24v-24c0-4.425781-3.585938-8-8-8h-448c-4.414062 0-8 3.574219-8 8v464c0 4.425781 3.585938 8 8 8h24v8c0 4.425781 3.585938 8 8 8h448c4.414062 0 8-3.574219 8-8v-448c0-4.425781-3.585938-8-8-8zm-472 432v-448h432v16h-360c-2.214844 0-4.214844.894531-5.664062 2.351562l-47.984376 47.984376c-1.457031 1.449218-2.351562 3.449218-2.351562 5.664062v376zm64-404.6875v20.6875h-20.6875zm400 420.6875h-432v-384h40c4.414062 0 8-3.574219 8-8v-40h384zm0 0" data-original="#000000" class="active-path" data-old_color="#000000" fill="#FFFFFF"/><path d="m392 144h64c4.414062 0 8-3.574219 8-8v-64c0-4.425781-3.585938-8-8-8h-64c-4.414062 0-8 3.574219-8 8v64c0 4.425781 3.585938 8 8 8zm8-64h48v48h-48zm0 0" data-original="#000000" class="active-path" data-old_color="#000000" fill="#FFFFFF"/><path d="m392 240h64c4.414062 0 8-3.574219 8-8v-64c0-4.425781-3.585938-8-8-8h-64c-4.414062 0-8 3.574219-8 8v64c0 4.425781 3.585938 8 8 8zm8-64h48v48h-48zm0 0" data-original="#000000" class="active-path" data-old_color="#000000" fill="#FFFFFF"/><path d="m136 384h-64c-4.414062 0-8 3.574219-8 8v64c0 4.425781 3.585938 8 8 8h64c4.414062 0 8-3.574219 8-8v-64c0-4.425781-3.585938-8-8-8zm-8 64h-48v-48h48zm0 0" data-original="#000000" class="active-path" data-old_color="#000000" fill="#FFFFFF"/><path d="m160 448h96v16h-96zm0 0" data-original="#000000" class="active-path" data-old_color="#000000" fill="#FFFFFF"/><path d="m160 416h96v16h-96zm0 0" data-original="#000000" class="active-path" data-old_color="#000000" fill="#FFFFFF"/><path d="m160 384h96v16h-96zm0 0" data-original="#000000" class="active-path" data-old_color="#000000" fill="#FFFFFF"/><path d="m272 128h96v16h-96zm0 0" data-original="#000000" class="active-path" data-old_color="#000000" fill="#FFFFFF"/><path d="m272 96h96v16h-96zm0 0" data-original="#000000" class="active-path" data-old_color="#000000" fill="#FFFFFF"/><path d="m272 64h96v16h-96zm0 0" data-original="#000000" class="active-path" data-old_color="#000000" fill="#FFFFFF"/></g> </svg>
