<?xml version="1.0"?>
<svg xmlns="http://www.w3.org/2000/svg" xmlns:xlink="http://www.w3.org/1999/xlink" version="1.1" id="Capa_1" x="0px" y="0px" viewBox="0 0 511.999 511.999" style="enable-background:new 0 0 511.999 511.999;" xml:space="preserve" width="512px" height="512px" class=""><g><g>
	<g>
		<path d="M359.75,215.46l-4.637,18.75c11.843,2.937,17.495,5.7,20.064,7.361c-9.882,6.414-53.885,19.262-172.309,19.262    S40.432,247.985,30.559,241.561c2.599-1.671,8.366-4.473,20.509-7.458l-4.608-18.76c-15.794,3.874-36.796,10.81-36.796,26.169    c0,31.937,105.064,38.641,193.204,38.641s193.204-6.714,193.204-38.641C396.072,226.231,375.341,219.324,359.75,215.46z" data-original="#000000" class="active-path" data-old_color="#000000" fill="#FFFFFF"/>
	</g>
</g><g>
	<g>
		<rect x="376.752" y="241.503" width="19.32" height="154.563" data-original="#000000" class="active-path" data-old_color="#000000" fill="#FFFFFF"/>
	</g>
</g><g>
	<g>
		<path d="M28.985,414.16V241.513H9.664v173.884c0,8.008,0,29.27,116.859,36.496l1.188-19.282    C47.899,427.665,31.535,416.459,28.985,414.16z" data-original="#000000" class="active-path" data-old_color="#000000" fill="#FFFFFF"/>
	</g>
</g><g>
	<g>
		<path d="M309.13,386.416c-32.265,0-193.204,1.855-193.204,38.641s160.939,38.641,193.204,38.641    c32.265,0,193.204-1.855,193.204-38.641S341.395,386.416,309.13,386.416z M309.14,444.377c-92.255,0-155.606-10.704-171.372-19.32    c15.765-8.617,79.117-19.32,171.372-19.32s155.597,10.703,171.372,19.32C464.737,433.674,401.395,444.377,309.14,444.377z" data-original="#000000" class="active-path" data-old_color="#000000" fill="#FFFFFF"/>
	</g>
</g><g>
	<g>
		<path d="M483.014,425.057v47.132c-5.738,5.806-47.287,20.489-173.883,20.489s-168.155-14.674-173.884-20.489v-47.132h-19.32    v48.301c0,31.937,105.064,38.641,193.204,38.641s193.204-6.714,193.204-38.641v-48.301H483.014z" data-original="#000000" class="active-path" data-old_color="#000000" fill="#FFFFFF"/>
	</g>
</g><g>
	<g>
		<path d="M354.079,291.282c-2.145-1.826-4.975-2.618-7.757-2.212c-47.219,7.235-95.423,10.423-143.638,9.438    c-47.847,0.976-96.032-2.203-143.251-9.438c-2.801-0.454-5.622,0.386-7.757,2.212c-2.145,1.845-3.371,4.511-3.371,7.332v95.114    c0,4.627,3.284,8.607,7.815,9.486c37.385,7.274,75.601,10.955,113.681,10.955c1.381,0,2.773-0.01,4.154-0.029l-0.135-19.32    c-35.492,0.242-71.205-2.821-106.195-9.11v-75.91c44.756,6.24,90.255,8.945,135.05,8.028c45.152,0.879,90.69-1.787,135.436-8.028    v76.161c-1.053,0.203-2.154,0.406-3.294,0.609l3.449,19.021c4.579-0.831,8.482-1.671,11.766-2.454    c4.347-1.053,7.4-4.936,7.4-9.399v-95.114C357.431,295.803,356.204,293.128,354.079,291.282z" data-original="#000000" class="active-path" data-old_color="#000000" fill="#FFFFFF"/>
	</g>
</g><g>
	<g>
		<path d="M106.266,164.232c-37.288,0-67.621,30.333-67.621,67.621v28.981h19.32v-28.981c0-26.633,21.668-48.301,48.301-48.301    h67.621v-19.32H106.266z" data-original="#000000" class="active-path" data-old_color="#000000" fill="#FFFFFF"/>
	</g>
</g><g>
	<g>
		<path d="M299.47,164.232h-38.641v19.32h38.641c26.633,0,48.301,21.668,48.301,48.301v28.981h19.32v-28.981    C367.092,194.565,336.749,164.232,299.47,164.232z" data-original="#000000" class="active-path" data-old_color="#000000" fill="#FFFFFF"/>
	</g>
</g><g>
	<g>
		<path d="M242.05,52.222c-0.309-0.155-0.638-0.29-0.966-0.415l-12.182-4.511c-0.328-0.116-0.667-0.222-1.014-0.309    c-19.456-4.859-37.24-14.915-51.421-29.077l-15.07-15.07c-2.772-2.772-6.917-3.603-10.53-2.096    c-3.603,1.497-5.96,5.023-5.96,8.926v14.49c0,18.151,7.071,35.221,20.325,48.465c5.584,5.584,8.656,13.003,8.656,21.378    c0,6.772-5.506,12.268-12.268,12.268h-7.052c-37.288,0-67.621,30.333-67.621,67.621h19.32c0-26.633,21.668-48.301,48.301-48.301    h7.052c17.408,0,31.589-14.162,31.589-32.072c0-13.051-5.081-25.329-14.722-34.97c-6.733-6.723-11.322-15.369-13.244-24.624    c16.113,15.282,35.897,26.198,57.449,31.666l11.167,4.144c16.664,8.549,26.991,25.426,26.971,44.186v2.009h-28.981v19.32h38.641    c5.342,0,9.66-4.328,9.66-9.66v-11.66C280.169,87.636,265.573,63.988,242.05,52.222z" data-original="#000000" class="active-path" data-old_color="#000000" fill="#FFFFFF"/>
	</g>
</g><g>
	<g>
		<path d="M251.169,115.931h-19.32v19.32h19.32c21.31,0,38.641,17.33,38.641,38.641h19.32    C309.13,141.926,283.135,115.931,251.169,115.931z" data-original="#000000" class="active-path" data-old_color="#000000" fill="#FFFFFF"/>
	</g>
</g></g> </svg>
