<?xml version="1.0" encoding="utf-8"?>
<!-- Generator: Adobe Illustrator 24.0.1, SVG Export Plug-In . SVG Version: 6.00 Build 0)  -->
<svg version="1.1" id="Layer_1" xmlns="http://www.w3.org/2000/svg" xmlns:xlink="http://www.w3.org/1999/xlink" x="0px" y="0px"
	 viewBox="0 0 718 706.8" style="enable-background:new 0 0 718 706.8;" xml:space="preserve">
<style type="text/css">
	.st0{fill:#DFDFDF;}
	.st1{fill:none;stroke:#FD8369;stroke-width:16;stroke-linecap:round;stroke-linejoin:round;}
	.st2{fill:#00AEEF;}
	.st3{fill:#56CAD8;}
	.st4{fill:#DE8E68;}
	.st5{fill:#74D5DE;}
	.st6{fill:#D37C59;}
	.st7{fill:#FCC486;}
	.st8{fill:#FED385;}
	.st9{fill:none;stroke:#DFDFDF;stroke-width:7;stroke-linecap:round;stroke-miterlimit:10;}
	.st10{fill:#FD8369;}
	.st11{fill:#FED892;}
	.st12{fill:none;stroke:#F9F9F9;stroke-width:7;stroke-miterlimit:10;}
	.st13{fill:#F9F9F9;}
</style>
<title>food-delivery-colour</title>
<g id="Layer_2_1_">
	<g id="vector">
		
			<rect x="260.8" y="311.1" transform="matrix(0.9823 -0.1874 0.1874 0.9823 -75.5537 57.6137)" class="st0" width="12.3" height="234.7"/>
		<path d="M242.4,298c-5.8,0-44.5-5.1-46.3-5.1s-6.3,1.2-6.3,4.1c0,10.1,32.5,19.1,65.6,19.1S242.4,298,242.4,298z"/>
		<circle class="st1" cx="134.1" cy="535.2" r="126.1"/>
		<circle class="st1" cx="583.9" cy="535.2" r="126.1"/>
		<rect x="420" y="307.1" transform="matrix(0.9424 -0.3345 0.3345 0.9424 -77.4836 172.7376)" width="85.7" height="8.6"/>
		
			<rect x="518.2" y="299" transform="matrix(0.8771 -0.4802 0.4802 0.8771 -136.4927 302.9101)" class="st0" width="11.1" height="238.5"/>
		<rect x="253.4" y="406.5" class="st0" width="267.8" height="7.6"/>
		
			<rect x="272.4" y="481.8" transform="matrix(0.7941 -0.6078 0.6078 0.7941 -214.3961 349.0435)" class="st0" width="271.2" height="18.3"/>
		<path class="st2" d="M141.6,522.8c20.1,0,151.5,8.4,151.5,8.4c-5.4,16.3-24.1,65.1-24.1,65.1c-9.5-2.7-123.4-55.6-123.4-55.6
			L141.6,522.8z"/>
		
			<rect x="105.2" y="461.9" transform="matrix(0.725 -0.6887 0.6887 0.725 -268.6183 264.6732)" class="st0" width="183.9" height="13.6"/>
		<circle class="st0" cx="281.1" cy="568.5" r="34.8"/>
		<path d="M275.1,473c-3.1,2.7-22.6,20.9-22.6,20.9l46.5,52.5l8.6-7.8l-18.3-51L275.1,473z"/>
		
			<rect x="155.9" y="52.3" transform="matrix(0.6007 -0.7995 0.7995 0.6007 10.3836 245.9734)" class="st0" width="191.1" height="120.5"/>
		<path class="st3" d="M342.2,260.1c10.6,3.6,84.5,66.3,92.4,78c-6.2,28.4-134,147.1-146.9,152.1c-6.9-4.1-14.1-12.9-14.1-17.9
			c3.8-6,61.8-97.2,61.8-97.2S296.4,255,342.2,260.1z"/>
		
			<ellipse transform="matrix(0.9886 -0.1504 0.1504 0.9886 -42.3333 70.1508)" class="st4" cx="442.6" cy="314.9" rx="13.6" ry="16.1"/>
		
			<ellipse transform="matrix(0.9886 -0.1504 0.1504 0.9886 -40.5827 75.3199)" class="st4" cx="477.7" cy="306" rx="12.6" ry="14.5"/>
		<path class="st5" d="M257.1,203.7c-7.5,4.7-33.4,33.5-33.4,65c0,40.6,81.6,104.1,111.1,124c-5.7,14.8-62.1,135.9-64,141.6
			c4.4,3.6,17.6,8.5,22.5,8.5c27.2-21.8,102.8-137,104.1-148.1s-62.9-132.3-62.9-132.3L257.1,203.7z"/>
		<path class="st6" d="M411.6,162.7c1,6.8,4.9,35,6.7,38.3s54.9,86.7,57.8,90.8c-0.4,3.6-6.6,9.5-10.9,8.8
			c-5.5-3.9-56.2-68.9-56.2-68.9S356.9,163.7,411.6,162.7z"/>
		<path class="st7" d="M395.4,123.4c11-3.3,21.2,28.4,19.3,40.3c-6,7.2-22.2,8.8-26.3,6.9C387.5,164.4,384.1,126.8,395.4,123.4z"/>
		<path class="st8" d="M362.8,84.1c16.1,0,39,18.5,39,37.1c0,41.7-48.2,147.2-62.9,150.6c-20.5,4.8-85.6-55.8-85.6-66.8
			C253.4,182.1,330.4,84.1,362.8,84.1z"/>
		<path class="st6" d="M380.9,58.1c-0.6,2.7-12.3,23.5-17.4,29.2c0.5,2.7,11.5,12.3,17.4,12C382.9,96.2,391,82,394,79.8
			S390.1,58.9,380.9,58.1z"/>
		<path class="st9" d="M257.1,203.7c21.9,8.2,108-5.8,132.2-17.1c-1.5-22.4-1.4-67.7-35.1-110.4"/>
		<ellipse transform="matrix(0.5 -0.866 0.866 0.5 159.3228 378.6052)" class="st4" cx="407.5" cy="51.3" rx="36.4" ry="26"/>
		<path class="st10" d="M381.8,40.4c-0.2-3.8,6.4-23.3,17.2-29s17.5-1.8,25-1.8c6.7,0,12.1-3.3,19.5-2.8
			c9.6,0.6,10.9,10.2,12.4,14.7c2,6,11.8,6.6,16.3,18c2.4,6.1-9.4,18.1-19.5,18.1c-5.9,0-15-3.4-17.6-5c0.6-2.3,1-4.7,1.3-7.1
			c-3.6,0-25.8-4.5-27.6-4.3s-8.5,6.8-9.1,8.3C397.6,48.8,385.8,48.1,381.8,40.4z"/>
		<circle class="st4" cx="383" cy="47.2" r="8.5"/>
		<path class="st11" d="M345.8,95.8c20.5-8.3,48.8,44.3,49.6,63.3c-3.5,5.7-40.8,19.5-48.3,18.4C336.1,164.7,322.9,105,345.8,95.8z"
			/>
		<path class="st4" d="M349,174.5c2.7,7.3,14.1,41,17.5,49.9s54.7,76,62.5,82.5c9.3,2.6,13-1.4,13.9-6.6
			c-1.9-5.2-39.7-87.7-42.6-95.6s-10.2-41.5-10.3-45.9C383.6,154.7,352.6,162.4,349,174.5z"/>
		<line class="st12" x1="255.6" y1="207.4" x2="159.3" y2="135"/>
		<line class="st12" x1="343.7" y1="90.1" x2="247.4" y2="17.7"/>
		<path d="M272.8,532.5c-1.8,3.7-12.6,28.1-12.6,28.1l63.5,30l4.8-10.6l-36.9-39.7L272.8,532.5z"/>
		
			<ellipse transform="matrix(3.327791e-02 -0.9994 0.9994 3.327791e-02 -405.2762 651.4251)" class="st10" cx="134.1" cy="535.2" rx="17.3" ry="17.3"/>
		<circle class="st10" cx="583.9" cy="535.2" r="17.3"/>
		<circle class="st13" cx="259.3" cy="120" r="18"/>
	</g>
</g>
</svg>
