<?xml version="1.0" encoding="iso-8859-1"?>
<!-- Generator: Adobe Illustrator 21.0.0, SVG Export Plug-In . SVG Version: 6.00 Build 0)  -->
<svg version="1.1" id="Capa_1" xmlns="http://www.w3.org/2000/svg" xmlns:xlink="http://www.w3.org/1999/xlink" x="0px" y="0px"
	 viewBox="0 0 512 512" style="enable-background:new 0 0 512 512;" xml:space="preserve">
<path style="fill:#FE6A16;" d="M420.106,183.786c-50.67,0-91.893-41.223-91.893-91.893S369.437,0,420.106,0S512,41.224,512,91.894
	S470.776,183.786,420.106,183.786z"/>
<path style="fill:#F24500;" d="M420.106,183.786c0-81.534,0-139.107,0-183.786C470.776,0,512,41.224,512,91.894
	S470.776,183.786,420.106,183.786z"/>
<polygon style="fill:#64E1DC;" points="435.106,76.894 435.106,48.82 405.106,48.82 405.106,76.894 377.034,76.894 377.034,106.894 
	405.106,106.894 405.106,134.966 435.106,134.966 435.106,106.894 463.18,106.894 463.18,76.894 "/>
<polygon style="fill:#00C8C8;" points="435.106,76.894 435.106,48.82 420.106,48.82 420.106,134.966 435.106,134.966 
	435.106,106.894 463.18,106.894 463.18,76.894 "/>
<rect x="115.95" y="214.97" style="fill:#FFBEAA;" width="105.96" height="176.25"/>
<rect x="168.93" y="214.97" style="fill:#FAA68E;" width="52.981" height="176.25"/>
<path style="fill:#FFCDBE;" d="M268.273,151.227c0-54.867-44.478-99.345-99.345-99.345l0,0c-54.867,0-99.345,44.478-99.345,99.345
	v57.439c0,54.867,44.478,99.345,99.345,99.345l0,0c54.867,0,99.345-44.478,99.345-99.345V151.227z"/>
<path style="fill:#FFBEAA;" d="M168.927,51.881v256.13c54.867,0,99.345-44.479,99.345-99.345v-57.439
	C268.273,96.36,223.794,51.881,168.927,51.881z"/>
<path style="fill:#64E1DC;" d="M116.136,321.814l-54.215,13.221C25.576,343.899,0,376.461,0,413.872V512h337.855v-98.128
	c0-37.411-25.576-69.973-61.921-78.836l-54.215-13.221l-52.791,47.69L116.136,321.814z"/>
<path style="fill:#00C8C8;" d="M168.927,512h168.927v-98.128c0-37.411-25.576-69.973-61.921-78.836l-54.215-13.221l-52.791,47.69
	L168.927,512z"/>
<path style="fill:#BC6829;" d="M69.582,144.358V96.982c0-35.262,28.586-63.848,63.848-63.848h170.551V80.51
	c0,35.262-28.586,63.848-63.848,63.848H69.582z"/>
<path style="fill:#9E5015;" d="M168.927,33.134v111.224h71.206c35.262,0,63.848-28.586,63.848-63.848V33.134H168.927z"/>
<g>
</g>
<g>
</g>
<g>
</g>
<g>
</g>
<g>
</g>
<g>
</g>
<g>
</g>
<g>
</g>
<g>
</g>
<g>
</g>
<g>
</g>
<g>
</g>
<g>
</g>
<g>
</g>
<g>
</g>
</svg>
