<svg id="Layer_1" data-name="Layer 1" xmlns="http://www.w3.org/2000/svg" viewBox="0 0 718 706.8">
  <defs>
    <style>
      .cls-1 {
        fill: #dfdfdf;
      }

      .cls-11, .cls-14, .cls-2, .cls-3 {
        fill: none;
      }

      .cls-2 {
        stroke: #000;
      }

      .cls-11, .cls-2, .cls-3 {
        stroke-linecap: round;
      }

      .cls-2, .cls-3 {
        stroke-linejoin: round;
        stroke-width: 16px;
      }

      .cls-3 {
        stroke: #363639;
      }

      .cls-4 {
        fill: #e0e0e1;
      }

      .cls-5 {
        fill: #56cad8;
      }

      .cls-6 {
        fill: #de8e68;
      }

      .cls-7 {
        fill: #74d5de;
      }

      .cls-8 {
        fill: #d37c59;
      }

      .cls-9 {
        fill: #fcc486;
      }

      .cls-10 {
        fill: #fed385;
      }

      .cls-11 {
        stroke: #dfdfdf;
      }

      .cls-11, .cls-14 {
        stroke-miterlimit: 10;
        stroke-width: 7px;
      }

      .cls-12 {
        fill: #363639;
      }

      .cls-13 {
        fill: #fed892;
      }

      .cls-14 {
        stroke: #f9f9f9;
      }

      .cls-15 {
        fill: #f9f9f9;
      }
    </style>
  </defs>
  <title>Artboard 1</title>
  <g id="Layer_2" data-name="Layer 2">
    <g id="vector">
      <rect class="cls-1" x="260.81" y="311.1" width="12.3" height="234.7" transform="translate(-75.56 57.62) rotate(-10.8)"/>
      <path d="M242.4,298c-5.8,0-44.5-5.1-46.3-5.1s-6.3,1.2-6.3,4.1c0,10.1,32.5,19.1,65.6,19.1S242.4,298,242.4,298Z"/>
      <circle class="cls-2" cx="134.1" cy="535.2" r="126.1"/>
      <circle class="cls-3" cx="583.9" cy="535.2" r="126.1"/>
      <rect x="420.02" y="307.08" width="85.7" height="8.6" transform="translate(-77.49 172.77) rotate(-19.54)"/>
      <rect class="cls-1" x="518.18" y="299.01" width="11.1" height="238.49" transform="translate(-136.51 302.89) rotate(-28.7)"/>
      <rect class="cls-1" x="253.4" y="406.5" width="267.8" height="7.6"/>
      <rect class="cls-1" x="272.4" y="481.77" width="271.2" height="18.3" transform="translate(-214.37 349.06) rotate(-37.43)"/>
      <path class="cls-4" d="M141.6,522.8c20.1,0,151.5,8.4,151.5,8.4-5.4,16.3-24.1,65.1-24.1,65.1-9.5-2.7-123.4-55.6-123.4-55.6Z"/>
      <rect class="cls-1" x="105.16" y="461.9" width="183.89" height="13.6" transform="translate(-268.61 264.64) rotate(-43.53)"/>
      <circle class="cls-1" cx="281.1" cy="568.5" r="34.8"/>
      <path d="M275.1,473c-3.1,2.7-22.6,20.9-22.6,20.9L299,546.4l8.6-7.8-18.3-51Z"/>
      <rect class="cls-1" x="155.86" y="52.3" width="191.1" height="120.5" transform="translate(10.41 245.94) rotate(-53.08)"/>
      <path class="cls-5" d="M342.2,260.1c10.6,3.6,84.5,66.3,92.4,78-6.2,28.4-134,147.1-146.9,152.1-6.9-4.1-14.1-12.9-14.1-17.9,3.8-6,61.8-97.2,61.8-97.2S296.4,255,342.2,260.1Z"/>
      <ellipse class="cls-6" cx="442.58" cy="314.89" rx="13.6" ry="16.1" transform="translate(-42.33 70.15) rotate(-8.65)"/>
      <ellipse class="cls-6" cx="477.69" cy="305.99" rx="12.6" ry="14.5" transform="translate(-40.59 75.33) rotate(-8.65)"/>
      <path class="cls-7" d="M257.1,203.7c-7.5,4.7-33.4,33.5-33.4,65,0,40.6,81.6,104.1,111.1,124-5.7,14.8-62.1,135.9-64,141.6,4.4,3.6,17.6,8.5,22.5,8.5,27.2-21.8,102.8-137,104.1-148.1s-62.9-132.3-62.9-132.3Z"/>
      <path class="cls-8" d="M411.6,162.7c1,6.8,4.9,35,6.7,38.3s54.9,86.7,57.8,90.8c-.4,3.6-6.6,9.5-10.9,8.8-5.5-3.9-56.2-68.9-56.2-68.9S356.9,163.7,411.6,162.7Z"/>
      <path class="cls-9" d="M395.4,123.4c11-3.3,21.2,28.4,19.3,40.3-6,7.2-22.2,8.8-26.3,6.9C387.5,164.4,384.1,126.8,395.4,123.4Z"/>
      <path class="cls-10" d="M362.8,84.1c16.1,0,39,18.5,39,37.1,0,41.7-48.2,147.2-62.9,150.6-20.5,4.8-85.6-55.8-85.6-66.8C253.4,182.1,330.4,84.1,362.8,84.1Z"/>
      <path class="cls-8" d="M380.9,58.1c-.6,2.7-12.3,23.5-17.4,29.2.5,2.7,11.5,12.3,17.4,12,2-3.1,10.1-17.3,13.1-19.5S390.1,58.9,380.9,58.1Z"/>
      <path class="cls-11" d="M257.1,203.7c21.9,8.2,108-5.8,132.2-17.1-1.5-22.4-1.4-67.7-35.1-110.4"/>
      <ellipse class="cls-6" cx="407.5" cy="51.36" rx="36.4" ry="26" transform="translate(159.27 378.58) rotate(-60)"/>
      <path class="cls-12" d="M381.8,40.4c-.2-3.8,6.4-23.3,17.2-29s17.5-1.8,25-1.8c6.7,0,12.1-3.3,19.5-2.8,9.6.6,10.9,10.2,12.4,14.7,2,6,11.8,6.6,16.3,18,2.4,6.1-9.4,18.1-19.5,18.1-5.9,0-15-3.4-17.6-5a55.52,55.52,0,0,0,1.3-7.1c-3.6,0-25.8-4.5-27.6-4.3s-8.5,6.8-9.1,8.3C397.6,48.8,385.8,48.1,381.8,40.4Z"/>
      <circle class="cls-6" cx="383" cy="47.2" r="8.5"/>
      <path class="cls-13" d="M345.8,95.8c20.5-8.3,48.8,44.3,49.6,63.3-3.5,5.7-40.8,19.5-48.3,18.4C336.1,164.7,322.9,105,345.8,95.8Z"/>
      <path class="cls-6" d="M349,174.5c2.7,7.3,14.1,41,17.5,49.9s54.7,76,62.5,82.5c9.3,2.6,13-1.4,13.9-6.6-1.9-5.2-39.7-87.7-42.6-95.6s-10.2-41.5-10.3-45.9C383.6,154.7,352.6,162.4,349,174.5Z"/>
      <line class="cls-14" x1="255.6" y1="207.4" x2="159.3" y2="135"/>
      <line class="cls-14" x1="343.7" y1="90.1" x2="247.4" y2="17.7"/>
      <path d="M272.8,532.5c-1.8,3.7-12.6,28.1-12.6,28.1l63.5,30,4.8-10.6-36.9-39.7Z"/>
      <circle class="cls-12" cx="134.07" cy="535.22" r="17.3" transform="translate(-405.32 651.4) rotate(-88.09)"/>
      <circle class="cls-12" cx="583.9" cy="535.2" r="17.3"/>
      <circle class="cls-15" cx="259.3" cy="120" r="18"/>
    </g>
  </g>
</svg>
