<svg id="Layer_1" data-name="Layer 1" xmlns="http://www.w3.org/2000/svg" xmlns:xlink="http://www.w3.org/1999/xlink" viewBox="0 0 1440 845">
  <defs>
    <style>
      .cls-1, .cls-2, .cls-3 {
        fill-rule: evenodd;
      }

      .cls-1 {
        fill: url(#linear-gradient);
      }

      .cls-2 {
        fill: url(#linear-gradient-2);
      }

      .cls-3 {
        fill: #fff;
        opacity: 0.1;
        isolation: isolate;
      }
    </style>
    <linearGradient id="linear-gradient" x1="73.87" y1="0.5" x2="75.35" y2="1.98" gradientTransform="translate(140361.36 2064.56) rotate(180) scale(1876.99 913.31)" gradientUnits="userSpaceOnUse">
      <stop offset="0" stop-color="#1bcedf"/>
      <stop offset="0.53" stop-color="#3cc7b1"/>
      <stop offset="0.8" stop-color="#4dc399"/>
      <stop offset="1" stop-color="#5ac088"/>
    </linearGradient>
    <linearGradient id="linear-gradient-2" x1="73.93" y1="-0.05" x2="74.93" y2="0.95" gradientTransform="translate(-138877.36 22.08) scale(1876.99 913.31)" xlink:href="#linear-gradient"/>
  </defs>
  <title>Artboard 1</title>
  <g id="_04---Contact" data-name=" 04---Contact">
    <g id="Hero">
      <g id="Content">
        <g id="Group-8">
          <g>
            <path id="Path-7" class="cls-1" d="M1432.64,244.72c-14,0-499,397.6-963.49,292.72S-.14,1017.05-683.49,290.71q-683.38-726.31,7.18,1395.81l2141.64,41.88Q1446.59,244.72,1432.64,244.72Z"/>
            <path id="Path-7-2" data-name="Path-7" class="cls-2" d="M-12.34,855.72C-1.82,855.72,364,611,714.32,675.53s353.94-295.23,869.33,151.88q515.4,447.09-5.42-859.22L-37-57.59Q-22.87,855.72-12.34,855.72Z"/>
            <path id="Path-2" class="cls-3" d="M-42,719.66Q273.93,163.07,817.3,423.34c543.38,260.28,712.45,306.84,543.38,369.07Q1191.68,854.69-36.8,917Z"/>
            <path id="Path-8" class="cls-3" d="M678.43,752.47Q532.18,515.31,867.33,356.88c335.15-158.47,376.94-309.19,300.9-360.72S1647.09,2.67,1685.81,205s-58,380.2-408.74,463.85Q926.28,752.48,678.43,752.47Z"/>
          </g>
        </g>
      </g>
    </g>
  </g>
</svg>
